<svg width="24" height="24" viewBox="0 0 24 24" fill="none" xmlns="http://www.w3.org/2000/svg">
<path fill-rule="evenodd" clip-rule="evenodd" d="M2.39825 15.7572L11.5312 10.9982C11.8162 10.8442 12.1833 10.8442 12.4683 10.9982L21.6012 15.7572C22.1322 16.0432 22.1322 16.6922 21.6012 16.9772L12.4683 21.8842C12.1833 22.0372 11.8162 22.0372 11.5312 21.8842L2.39825 16.9772C1.86725 16.6922 1.86725 16.0432 2.39825 15.7572Z" fill="#006CFF"/>
<path fill-rule="evenodd" clip-rule="evenodd" d="M2.39825 11.3162L11.5312 6.55616C11.8162 6.40316 12.1833 6.40316 12.4683 6.55616L21.6012 11.3162C22.1322 11.6012 22.1322 12.2512 21.6012 12.5362L12.4683 17.4422C12.1833 17.5962 11.8162 17.5962 11.5312 17.4422L2.39825 12.5362C1.86725 12.2512 1.86725 11.6012 2.39825 11.3162Z" fill="#99C4FF"/>
<path fill-rule="evenodd" clip-rule="evenodd" d="M2.39825 6.87475L11.5312 2.11475C11.8162 1.96175 12.1833 1.96175 12.4683 2.11475L21.6012 6.87475C22.1322 7.15975 22.1322 7.80975 21.6012 8.09475L12.4683 13.0007C12.1833 13.1547 11.8162 13.1547 11.5312 13.0007L2.39825 8.09475C1.86725 7.80975 1.86725 7.15975 2.39825 6.87475Z" fill="#006CFF"/>
</svg>
