<svg width="32" height="32" viewBox="0 0 32 32" fill="none" xmlns="http://www.w3.org/2000/svg">
<path fill-rule="evenodd" clip-rule="evenodd" d="M19.0115 3.09793C18.926 3.03474 18.822 3 18.7143 3H9.21429L9.03164 3.0052C7.33911 3.10179 6 4.5324 6 6.27778V25.7222L6.00508 25.908C6.09947 27.6296 7.49777 29 9.21429 29H22.7857L22.9684 28.9948C24.6609 28.8982 26 27.4676 26 25.7222V10.4444L25.9906 10.3479C25.9719 10.2531 25.9261 10.1651 25.8576 10.095L19.0719 3.15056L19.0115 3.09793ZM9.21429 4H18V9.2L18.006 9.34763C18.0811 10.2727 18.8556 11 19.8 11H25V25.7222L24.9949 25.8785C24.9168 27.0658 23.9552 28 22.7857 28H9.21429L9.06298 27.9948C7.91288 27.9148 7 26.9302 7 25.7222V6.27778L7.00512 6.12153C7.08323 4.93424 8.04484 4 9.21429 4ZM10.5 11H14.5C14.7761 11 15 11.2239 15 11.5C15 11.7761 14.7761 12 14.5 12H10.5C10.2239 12 10 11.7761 10 11.5C10 11.2239 10.2239 11 10.5 11ZM21.5 15H10.5C10.2239 15 10 15.2239 10 15.5C10 15.7761 10.2239 16 10.5 16H21.5C21.7761 16 22 15.7761 22 15.5C22 15.2239 21.7761 15 21.5 15ZM10.5 19H21.5C21.7761 19 22 19.2239 22 19.5C22 19.7761 21.7761 20 21.5 20H10.5C10.2239 20 10 19.7761 10 19.5C10 19.2239 10.2239 19 10.5 19ZM10.5 23H21.5C21.7761 23 22 23.2239 22 23.5C22 23.7761 21.7761 24 21.5 24H10.5C10.2239 24 10 23.7761 10 23.5C10 23.2239 10.2239 23 10.5 23ZM24.367 10L19 4.508V9.2C19 9.60784 19.3052 9.9444 19.6996 9.99377L19.8 10H24.367Z" fill="#595959"/>
</svg>
