<svg width="40" height="40" viewBox="0 0 40 40" fill="none" xmlns="http://www.w3.org/2000/svg">
<path fill-rule="evenodd" clip-rule="evenodd" d="M23.5714 3H11.0714C8.81985 3 7 4.86838 7 7.16667V32.8333C7 35.1316 8.81985 37 11.0714 37H28.9286C31.1801 37 33 35.1316 33 32.8333V13V12.6667C33 12.5363 32.9491 12.4112 32.8582 12.3178L23.9296 3.15113C23.8355 3.0545 23.7063 3 23.5714 3ZM31.6396 12.5L24 4.65609V11.2C24 11.8731 24.5115 12.4267 25.1671 12.4933L25.3 12.5H31.6396ZM23 4H11.0714C9.37811 4 8 5.41486 8 7.16667V32.8333C8 34.5851 9.37811 36 11.0714 36H28.9286C30.6219 36 32 34.5851 32 32.8333V13.5H25.3C24.0827 13.5 23.0862 12.5543 23.0053 11.3575L23 11.2V4ZM16.5 18V27H15V18H16.5ZM21.4186 18C21.8525 18 22.2603 18.0429 22.6419 18.1286C23.0235 18.2144 23.3546 18.3586 23.6352 18.5612C23.9158 18.7639 24.1365 19.0329 24.2974 19.368C24.4582 19.7032 24.5387 20.1203 24.5387 20.6192C24.5387 21.2739 24.3946 21.804 24.1066 22.2094C23.8665 22.5471 23.5602 22.8119 23.1877 23.0035L22.9562 23.1097L25 27H23.1775L21.34 23.3786H20.184V27H18.523V18H21.4186ZM20.184 19.368H21.2614C21.8002 19.368 22.2098 19.4596 22.4904 19.6428C22.771 19.826 22.9113 20.1514 22.9113 20.6192C22.9113 21.0869 22.771 21.4357 22.4904 21.6656C22.2098 21.8956 21.8002 22.0106 21.2614 22.0106H20.184V19.368Z" fill="#595959"/>
</svg>
