<svg width="134" height="20" viewBox="0 0 134 20" fill="none" xmlns="http://www.w3.org/2000/svg">
<g id="logo/nextunicorn">
<path id="Fill 8" fill-rule="evenodd" clip-rule="evenodd" d="M3.09494 6.74003C3.38542 6.65481 3.70476 6.55696 4.05462 6.44565C4.40358 6.33523 4.79668 6.23379 5.23109 6.1396C5.66641 6.04623 6.15209 5.96993 6.68906 5.90978C7.22692 5.85053 7.83584 5.82091 8.51846 5.82091C10.5306 5.82091 11.912 6.39896 12.6631 7.55687C13.4132 8.71389 13.5409 10.2972 13.0462 12.3051L11.3067 19.5549H7.49491L9.18316 12.4577C9.28571 12.0161 9.36667 11.5861 9.42687 11.1688C9.48631 10.7523 9.48174 10.386 9.41345 10.071C9.34508 9.75689 9.18766 9.50104 8.94035 9.30534C8.69298 9.10964 8.31344 9.01186 7.80256 9.01186C7.30698 9.01186 6.8042 9.06303 6.29332 9.1644L3.81174 19.5549H0L3.09494 6.74003Z" fill="#006CFF"/>
<path id="Fill 1" fill-rule="evenodd" clip-rule="evenodd" d="M18.5202 12.1777C18.7244 11.1562 19.1552 10.3349 19.8118 9.71373C20.4684 9.09259 21.232 8.78205 22.1018 8.78205C23.0228 8.78205 23.4833 9.19044 23.4833 10.0072C23.4833 10.246 23.4231 10.4839 23.3034 10.7218C23.1847 10.9605 22.9455 11.1813 22.5874 11.386C22.2295 11.5897 21.7258 11.7648 21.0783 11.9093C20.4298 12.0538 19.5771 12.1436 18.5202 12.1777ZM24.5617 13.671C25.3306 13.2495 25.9395 12.6939 26.3718 12.0205C26.8055 11.3459 27.0252 10.5136 27.0252 9.54758C27.0252 8.94184 26.9152 8.39264 26.6978 7.9161C26.4792 7.43727 26.1699 7.02722 25.7788 6.69804C25.3893 6.36941 24.9281 6.11515 24.4072 5.94141C23.8874 5.76925 23.3184 5.6819 22.7164 5.6819C21.4977 5.6819 20.3702 5.92932 19.3652 6.41761C18.3607 6.90672 17.495 7.55777 16.7925 8.35314C16.091 9.14665 15.5388 10.0705 15.1516 11.0993C14.7658 12.1253 14.5704 13.2009 14.5704 14.2961C14.5704 15.0664 14.6747 15.8052 14.8808 16.492C15.0883 17.181 15.4257 17.7932 15.8839 18.3115C16.3427 18.8299 16.9478 19.2457 17.682 19.5475C18.4147 19.8477 19.3252 20.0001 20.3884 20.0001C21.2613 20.0001 22.0807 19.9221 22.8242 19.7682C22.9795 19.7363 23.5629 19.5649 24.0774 19.4132C24.4003 19.3186 24.6806 19.2358 24.7674 19.2141L24.8192 19.2012L25.6726 15.6669L25.5176 15.7247C25.0313 15.9055 23.2933 16.4304 22.7529 16.5197C22.1988 16.6124 21.6444 16.6595 21.1044 16.6595C20.2582 16.6595 19.6348 16.5151 19.2521 16.2301C18.8911 15.9622 18.6466 15.5047 18.524 14.8689C19.7144 14.8638 20.8287 14.7689 21.8367 14.5869C22.8843 14.3979 23.8013 14.0897 24.5617 13.671Z" fill="#006CFF"/>
<path id="Fill 22" fill-rule="evenodd" clip-rule="evenodd" d="M37.792 6.12697L34.5806 9.88368L32.6816 6.12697H28.6773L32.0646 12.827L26.3136 19.5549H30.3555L33.5669 15.7986L35.4657 19.5549H39.4703L36.0826 12.8552L41.8339 6.12697H37.792Z" fill="#006CFF"/>
<path id="Fill 4" fill-rule="evenodd" clip-rule="evenodd" d="M47.306 6.12811L48.2783 2.17058L44.3127 2.78365L43.5193 6.12907L41.806 13.3528C41.6012 14.22 41.4816 15.0449 41.4482 15.8269C41.4837 16.7226 41.707 17.4899 42.1201 18.1271C42.8553 19.2607 44.1964 19.8369 46.14 19.8608C46.8675 19.8497 47.5042 19.7826 48.0481 19.6585C48.13 19.6396 48.211 19.6204 48.2914 19.6007L49.0693 16.3794C48.7992 16.4612 48.5312 16.5289 48.2648 16.5824C47.8816 16.6587 47.485 16.6973 47.0758 16.6973C46.5982 16.6973 46.2222 16.6291 45.9497 16.4927C45.6772 16.3571 45.4856 16.165 45.374 15.9181C45.2634 15.6722 45.2212 15.3787 45.2463 15.0376C45.2724 14.6975 45.3362 14.3313 45.4389 13.9399L45.5287 13.5645L46.5639 9.24275H50.2278H50.785L51.552 6.12907L51.5522 6.12811H47.306Z" fill="#006CFF"/>
<path id="Fill 6" fill-rule="evenodd" clip-rule="evenodd" d="M62.0969 18.9419C61.8064 19.0272 61.4871 19.125 61.1373 19.2363C60.7883 19.3467 60.3952 19.4482 59.9608 19.5424C59.5255 19.6357 59.0398 19.712 58.5029 19.7722C57.965 19.8314 57.356 19.8611 56.6734 19.8611C54.6614 19.8611 53.2798 19.2829 52.5288 18.1251C51.7787 16.9681 51.6509 15.3847 52.1457 13.3768L53.8851 6.12697H57.697L56.0087 13.2242C55.9062 13.6659 55.8252 14.0958 55.7649 14.5132C55.7056 14.9297 55.7101 15.2958 55.7784 15.6109C55.8469 15.9251 56.0042 16.1809 56.2515 16.3766C56.4989 16.5723 56.8784 16.6701 57.3894 16.6701C57.885 16.6701 58.3877 16.6189 58.8985 16.5176L61.3801 6.12697H65.1919L62.0969 18.9419Z" fill="#006CFF"/>
<path id="Fill 10" fill-rule="evenodd" clip-rule="evenodd" d="M67.8339 6.74003C68.1244 6.65481 68.4437 6.55696 68.7935 6.44565C69.1426 6.33523 69.5356 6.23379 69.97 6.1396C70.4053 6.04623 70.8911 5.96993 71.428 5.90978C71.9659 5.85053 72.5748 5.82091 73.2575 5.82091C75.2695 5.82091 76.651 6.39896 77.402 7.55687C78.1521 8.71389 78.2799 10.2972 77.7852 12.3051L76.0457 19.5549H72.2339L73.9221 12.4577C74.0247 12.0161 74.1057 11.5861 74.1659 11.1688C74.2252 10.7523 74.2207 10.386 74.1524 10.071C74.084 9.75689 73.9267 9.50104 73.6793 9.30534C73.4319 9.10964 73.0524 9.01186 72.5415 9.01186C72.0459 9.01186 71.5431 9.06303 71.0323 9.1644L68.5507 19.5549H64.7389L67.8339 6.74003Z" fill="#006CFF"/>
<path id="Fill 12" fill-rule="evenodd" clip-rule="evenodd" d="M84.2157 4.49338C83.6869 4.49338 83.2093 4.33635 82.7829 4.02029C82.3566 3.70623 82.1434 3.22512 82.1434 2.57877C82.1434 2.22065 82.2162 1.88498 82.3611 1.56988C82.5059 1.25492 82.6975 0.982917 82.9368 0.753103C83.1751 0.523358 83.4521 0.340156 83.7678 0.203773C84.0835 0.0682181 84.4208 6.10352e-05 84.7788 6.10352e-05C85.3067 6.10352e-05 85.7843 0.157091 86.2115 0.472188C86.637 0.787216 86.8511 1.26832 86.8511 1.9146C86.8511 2.27182 86.7782 2.6084 86.6334 2.9226C86.4886 3.23852 86.2961 3.51053 86.0577 3.74034C85.8185 3.97009 85.5414 4.15315 85.2267 4.28871C84.9101 4.42516 84.5737 4.49338 84.2157 4.49338ZM82.3746 19.5549H78.5889L81.7864 6.12695H85.5982L82.3746 19.5549Z" fill="#006CFF"/>
<path id="Fill 20" fill-rule="evenodd" clip-rule="evenodd" d="M94.2855 19.1876L94.9516 16.4294L94.981 16.3078C94.7222 16.3969 94.4418 16.4754 94.1388 16.5426C93.6783 16.645 93.2007 16.6961 92.7069 16.6961C91.7004 16.6961 91.0096 16.4278 90.6345 15.8918C90.2595 15.356 90.0716 14.6532 90.0716 13.7853C90.0716 12.3051 90.4385 11.1347 91.1716 10.2756C91.9046 9.41575 92.9111 8.98589 94.19 8.98589C94.7189 8.98589 95.1668 9.04147 95.5329 9.15189C95.8949 9.26169 96.2437 9.38302 96.5812 9.51719L97.2473 6.75908L97.352 6.32534C97.0076 6.1931 96.6404 6.07999 96.2497 5.98608C95.6445 5.84244 94.9582 5.76973 94.19 5.76973C92.9623 5.76973 91.8498 5.99057 90.8523 6.43307C89.8539 6.87654 89.0057 7.47966 88.3069 8.24624C87.6071 9.01192 87.0702 9.90493 86.6951 10.9264C86.3201 11.9479 86.1321 13.0367 86.1321 14.1936C86.1321 14.9602 86.2382 15.6917 86.4523 16.3892C86.6654 17.0875 87.0108 17.696 87.4884 18.2148C87.9651 18.7346 88.5704 19.1465 89.3044 19.4527C90.0373 19.7596 90.9323 19.9122 91.99 19.9122C92.8085 19.9122 93.5038 19.8404 94.0749 19.6959C94.1065 19.6879 94.1373 19.6796 94.1687 19.6715L94.1736 19.6506L94.2855 19.1876Z" fill="#006CFF"/>
<path id="Fill 14" fill-rule="evenodd" clip-rule="evenodd" d="M104.556 8.98584C103.993 8.98584 103.498 9.14833 103.072 9.47137C102.645 9.79454 102.287 10.2029 101.998 10.6966C101.707 11.1903 101.49 11.7306 101.345 12.3177C101.2 12.9047 101.128 13.4621 101.128 13.9899C101.128 14.8578 101.264 15.5257 101.537 15.9942C101.81 16.4618 102.304 16.6961 103.02 16.6961C103.583 16.6961 104.078 16.5346 104.504 16.2106C104.931 15.8874 105.289 15.479 105.578 14.9853C105.869 14.4916 106.086 13.9513 106.231 13.3643C106.376 12.7772 106.448 12.2198 106.448 11.692C106.448 10.8241 106.311 10.1563 106.039 9.68861C105.766 9.22014 105.272 8.98584 104.556 8.98584ZM102.663 19.9122C101.759 19.9122 100.975 19.7758 100.309 19.5038C99.6449 19.2318 99.0944 18.8495 98.6599 18.3549C98.2246 17.8621 97.8963 17.2787 97.6751 16.6063C97.4529 15.9341 97.3423 15.19 97.3423 14.3732C97.3423 13.3517 97.5087 12.3302 97.8415 11.3097C98.1743 10.2882 98.6636 9.3691 99.312 8.55232C99.9605 7.73547 100.753 7.06771 101.691 6.54794C102.629 6.0292 103.703 5.76976 104.915 5.76976C105.801 5.76976 106.581 5.90614 107.255 6.17815C107.929 6.45009 108.484 6.83341 108.918 7.32708C109.353 7.82076 109.681 8.40323 109.903 9.07562C110.124 9.74787 110.236 10.492 110.236 11.3097C110.236 12.3302 110.073 13.3517 109.749 14.3732C109.425 15.3937 108.948 16.3128 108.317 17.1297C107.686 17.9465 106.897 18.6152 105.951 19.134C105.004 19.6528 103.908 19.9122 102.663 19.9122Z" fill="#006CFF"/>
<path id="Fill 16" fill-rule="evenodd" clip-rule="evenodd" d="M120.871 9.44434C119.462 8.98582 117.534 9.05853 117.244 9.10066L116.537 9.2059L114.047 19.5549H110.235L113.304 6.84146C114.038 6.60357 114.861 6.37831 115.773 6.16562C116.686 5.9528 117.713 5.84604 118.856 5.84604C119.282 5.84604 119.755 5.88464 120.275 5.96095C120.795 6.03718 121.252 6.16107 121.644 6.33073L120.871 9.44434Z" fill="#006CFF"/>
<path id="Fill 18" fill-rule="evenodd" clip-rule="evenodd" d="M123.754 6.74003C124.044 6.65481 124.364 6.55696 124.714 6.44565C125.062 6.33523 125.456 6.23379 125.89 6.1396C126.325 6.04623 126.811 5.96993 127.348 5.90978C127.886 5.85053 128.495 5.82091 129.177 5.82091C131.189 5.82091 132.571 6.39896 133.322 7.55687C134.072 8.71389 134.2 10.2972 133.705 12.3051L131.966 19.5549H128.154L129.842 12.4577C129.945 12.0161 130.026 11.5861 130.086 11.1688C130.145 10.7523 130.141 10.386 130.072 10.071C130.004 9.75689 129.847 9.50104 129.599 9.30534C129.352 9.10964 128.972 9.01186 128.461 9.01186C127.966 9.01186 127.463 9.06303 126.952 9.1644L124.471 19.5549H120.659L123.754 6.74003Z" fill="#006CFF"/>
</g>
</svg>
