<svg width="20" height="20" viewBox="0 0 20 20" fill="none" xmlns="http://www.w3.org/2000/svg">
<path fill-rule="evenodd" clip-rule="evenodd" d="M11.8546 3.11089L12.2015 3.22455C13.1005 3.51913 13.7071 4.34766 13.7071 5.28104V8.41458H14.8C16.015 8.41458 17 9.3849 17 10.5818C17 10.7832 16.9715 10.9836 16.9154 11.1772L15.9725 14.4281C15.7026 15.3585 14.8394 16 13.8571 16H7.1C6.88675 16 6.68767 15.9402 6.5191 15.8367C6.36778 15.9403 6.19008 16 6 16H4C3.44772 16 3 15.4963 3 14.875V8.125C3 7.50368 3.44772 7 4 7H6C6.30519 7 6.57844 7.1538 6.76187 7.39626L9.44236 3.8135C10.0178 3.10488 10.9805 2.82448 11.8546 3.11089ZM7 8.76893V14.875V15H13.8571C14.3036 15 14.7009 14.7349 14.8708 14.3372L14.9148 14.2141L15.9577 10.8795C15.9858 10.7827 16 10.6825 16 10.5818C16 10.0261 15.5754 9.5681 15.0283 9.5055L14.9 9.49821H13.6071C13.0549 9.49821 12.6071 9.0505 12.6071 8.49821V5.21859C12.6071 4.79433 12.3565 4.41339 11.9732 4.23697L11.8543 4.19034L11.5074 4.07668C11.1141 3.9478 10.6849 4.04847 10.4125 4.30339L10.3278 4.39397L7 8.76893ZM6 14.9164V8.41458V8H4V15H6V14.9164Z" fill="#595959"/>
</svg>
